<svg xmlns="http://www.w3.org/2000/svg" width="900" height="300" viewBox="0 0 900 300">
  <style>
    .box { fill:#f6f8fa; stroke:#2d7aee; stroke-width:2; rx:6; }
    .text { font: 14px/1.2 Arial, Helvetica, sans-serif; fill:#0b2545; }
    .title { font: 16px/1.2 Arial, Helvetica, sans-serif; font-weight:700; fill:#0b2545 }
    .arrow { fill:none; stroke:#2d7aee; stroke-width:2; marker-end:url(#arrow); }
    .muted { fill:#6b7280 }
  </style>
  <defs>
    <marker id="arrow" markerWidth="10" markerHeight="10" refX="8" refY="5" orient="auto">
      <path d="M0 0 L10 5 L0 10 z" fill="#2d7aee" />
    </marker>
  </defs>

  <!-- Registry diagram -->
  <g transform="translate(20,20)">
    <text class="title" x="0" y="0">Registry states</text>

    <rect class="box" x="0" y="30" width="120" height="40" />
    <text class="text" x="60" y="55" text-anchor="middle">live</text>

    <rect class="box" x="170" y="30" width="120" height="40" />
    <text class="text" x="230" y="55" text-anchor="middle">suspended</text>

    <rect class="box" x="340" y="30" width="120" height="40" />
    <text class="text" x="400" y="55" text-anchor="middle">revoked</text>

    <rect class="box" x="510" y="30" width="120" height="40" />
    <text class="text" x="570" y="55" text-anchor="middle">expired</text>

    <!-- arrows -->
    <path class="arrow" d="M120 50 L170 50" />
    <path class="arrow" d="M120 50 L340 50" />
    <path class="arrow" d="M120 50 L510 50" />
    <!-- reinstatement -->
    <path class="arrow" d="M270 30 L230 10 L150 10 L120 30" />
    <!-- notes -->
    <text class="muted" x="0" y="110">From <tspan font-weight="700">live</tspan> → can move to any other state.</text>
    <text class="muted" x="0" y="130"><tspan font-weight="700">suspended</tspan> → can be reinstated to <tspan font-weight="700">live</tspan>.</text>
    <text class="muted" x="0" y="150"><tspan font-weight="700">revoked</tspan> and <tspan font-weight="700">expired</tspan> are terminal.</text>
  </g>

  <!-- Record diagram -->
  <g transform="translate(20,170)">
    <text class="title" x="0" y="0">Record states</text>

    <rect class="box" x="0" y="20" width="120" height="40" />
    <text class="text" x="60" y="45" text-anchor="middle">draft</text>

    <rect class="box" x="170" y="20" width="120" height="40" />
    <text class="text" x="230" y="45" text-anchor="middle">live</text>

    <rect class="box" x="340" y="20" width="120" height="40" />
    <text class="text" x="400" y="45" text-anchor="middle">suspended</text>

    <rect class="box" x="510" y="20" width="120" height="40" />
    <text class="text" x="570" y="45" text-anchor="middle">revoked</text>

    <rect class="box" x="680" y="20" width="120" height="40" />
    <text class="text" x="740" y="45" text-anchor="middle">expired</text>

    <!-- arrows -->
    <path class="arrow" d="M120 40 L170 40" />
    <path class="arrow" d="M290 40 L340 40" />
    <path class="arrow" d="M290 40 L510 40" />
    <path class="arrow" d="M290 40 L680 40" />

    <!-- reinstatement -->
    <path class="arrow" d="M400 20 L360 0 L210 0 L170 20" />

    <text class="muted" x="0" y="80">From <tspan font-weight="700">draft</tspan> → only to <tspan font-weight="700">live</tspan>.</text>
    <text class="muted" x="0" y="100">From <tspan font-weight="700">live</tspan> → can move to suspended, revoked, expired (not draft).</text>
    <text class="muted" x="0" y="120"><tspan font-weight="700">suspended</tspan> → can be reinstated to <tspan font-weight="700">live</tspan>. Revoked/expired are terminal.</text>
  </g>
</svg>
